<svg xmlns="http://www.w3.org/2000/svg" viewBox="0 0 1612.26 1612.26" id="exZ60lD4WFd1">
  <circle cx="806.13" cy="806.13" r="806.13" fill="#009846"/>
  <path d="M744.75,288.61c43.14,0,84.59,0,127.72,0c0,107.82-1.65,213.98,0,321.78c72.99-58.06,174.17-84.59,265.4-56.4c92.89,26.54,155.92,122.74,155.92,217.29c1.66,147.62,0,293.6,0,441.22-41.48,0-84.59,0-126.06,0-3.32-149.3,4.97-300.23-4.97-447.87-31.52-144.3-262.09-111.13-285.3,23.22-13.27,140.99-1.66,283.64-4.97,424.63-43.13,0-84.59,0-127.72,0c0-308.53,0-615.38,0-923.91l-.02.04Z" fill="#fefefe"/>
  <path d="M389.78,408.04c43.13-21.55,84.59-43.13,127.72-64.68c0,71.33,0,144.3,0,215.63c53.07,1.66,104.51,1.66,157.58,1.66c0,39.82,0,81.27,0,122.75-53.07-1.66-104.51-1.66-157.58,0c1.66,119.43-3.31,238.85,1.66,358.28c14.93,86.25,119.43,64.69,179.13,48.11c0,39.81,0,81.27,0,121.09-107.82,38.14-267.05,11.61-296.91-116.1-24.89-136.03-3.31-275.36-13.27-413.02-38.15,0-76.31,1.66-116.11,1.66c0-41.48,0-82.93,0-122.75c39.82,0,79.62,0,117.76-1.66c0-49.76,0-101.17,0-150.95l.02-.02Z" fill="#fefefe"/>
</svg>
