<?xml version="1.0" encoding="UTF-8"?>
<!DOCTYPE svg PUBLIC "-//W3C//DTD SVG 1.1//EN" "http://www.w3.org/Graphics/SVG/1.1/DTD/svg11.dtd">
<!-- Creator: CorelDRAW 2018 (64-Bit) -->
<svg xmlns="http://www.w3.org/2000/svg" xml:space="preserve" width="1172px" height="278px" version="1.1" style="shape-rendering:geometricPrecision; text-rendering:geometricPrecision; image-rendering:optimizeQuality; fill-rule:evenodd; clip-rule:evenodd"
viewBox="0 0 1267.2 300.73"
 xmlns:xlink="http://www.w3.org/1999/xlink">
 <defs>
  <style type="text/css">
   <![CDATA[
    .str0 {stroke:#9D9E9E;stroke-width:2.55;stroke-miterlimit:22.9256}
    .fil1 {fill:none;fill-rule:nonzero}
    .fil0 {fill:#9D9E9E;fill-rule:nonzero}
   ]]>
  </style>
 </defs>
 <g id="Layer_x0020_1">
  <metadata id="CorelCorpID_0Corel-Layer"/>
  <path class="fil0" d="M150.56 0.07c13.52,-0.09 26.99,-0.09 40.46,-0.04 0.09,34.15 -0.09,68.3 0.09,102.45 23.65,-18.7 55.46,-26.94 84.7,-17.66 29.86,8.24 49.78,38.7 49.91,69.01 0.45,46.86 0,93.76 0.14,140.61 -13.47,0.18 -26.94,0.18 -40.41,0.14 -1,-47.67 1.66,-95.51 -1.36,-143.04 -10.45,-45.82 -83.66,-35.46 -91.27,7.57 -4.19,44.82 -0.59,90.32 -1.8,135.42 -13.47,0.09 -26.94,0.09 -40.46,0.05 -0.09,-98.17 -0.04,-196.34 0,-294.51z"/>
  <path class="fil0" d="M510.12 11.7c15.63,-11.49 41.08,0.99 40.86,20.59 2.25,19.86 -23.25,35.09 -39.83,23.92 -17.16,-8.52 -18.06,-35.28 -1.03,-44.51z"/>
  <path class="fil0" d="M37.53 37.96c13.51,-6.76 26.98,-13.65 40.41,-20.59 0.09,22.98 0,46 0.04,69.02 16.85,0.09 33.7,0.09 50.55,0.14 0,13.02 0,26.04 -0.04,39.06 -16.81,-0.05 -33.61,-0.09 -50.42,0.09 0.41,38.07 -1.26,76.22 0.77,114.2 4.51,27.57 37.8,20.55 56.95,15.64 -0.05,12.79 -0.05,25.63 0,38.47 -34.38,12.21 -85.11,3.65 -94.97,-36.99 -7.57,-43.29 -0.68,-87.85 -3.92,-131.64 -12.3,0.18 -24.6,0.23 -36.86,0.27 -0.04,-13.02 -0.04,-26.04 -0.04,-39.06 12.52,-0.09 25.05,-0.09 37.53,-0.22 -0.05,-16.13 -0.05,-32.26 0,-48.39z"/>
  <path class="fil0" d="M784.66 115.27c30.41,-37.57 91.27,-45.46 129.97,-16.26 31.99,23.02 41.54,65.68 37.22,103.03 -51.54,0.45 -103.04,-0.32 -154.53,0.36 2.48,19.19 10,39.56 27.53,49.78 29.64,20.41 77.21,8.61 87.58,-27.93 13.2,0 26.4,0 39.6,0.23 -7.3,60.72 -79.61,91.09 -132.59,69.1 -67.49,-27.75 -80.46,-125.91 -34.78,-178.31zm14.42 51l0 0c37.66,0.72 75.32,0.54 112.99,0.13 -3.97,-22.16 -19.96,-42.88 -43.57,-45.36 -31.27,-6.62 -61.13,15.54 -69.42,45.23z"/>
  <path class="fil0" d="M365.91 86.53c13.2,-0.09 26.44,-0.05 39.64,0.22 0.14,6.09 0.23,12.21 0.36,18.3 21.36,-17.76 49.96,-23.07 76.73,-16.49 0,13.6 0,27.21 0.04,40.81 -28.92,-7.93 -66.18,1.04 -72.8,34.38 -7.93,42.93 -1.67,87.31 -3.74,130.78 -13.43,0.09 -26.81,0.09 -40.23,-0.04 0,-69.29 0.04,-138.63 0,-207.96z"/>
  <path class="fil0" d="M504.76 86.53c13.56,-0.09 27.07,-0.05 40.59,0.27 -0.09,69.24 0.18,138.49 -0.14,207.73 -13.47,0.09 -26.94,0.09 -40.36,0.05 -0.14,-69.38 0,-138.72 -0.09,-208.05z"/>
  <path class="fil0" d="M559.58 86.53c14.46,-0.09 28.88,-0.09 43.34,0.09 20.64,51.36 39.83,103.3 62.17,153.94 20.32,-51.18 41.36,-102.09 61,-153.49 14.47,-0.77 28.93,-0.77 43.39,-0.32 -28.11,69.34 -56.54,138.54 -85.06,207.74 -13.2,-0.73 -27.53,2.61 -40.01,-2.03 -29.55,-68.03 -56.13,-137.45 -84.83,-205.93z"/>
  <path class="fil0" d="M982.3 86.53c12.8,-0.05 25.55,-0.05 38.34,-0.05 0.09,6.13 0.18,12.3 0.27,18.47 22.03,-16.66 49.74,-23.02 76.81,-16.98 1.58,13.74 1.71,27.57 1.49,41.36 -28.88,-7.62 -65.68,0.63 -73.12,33.69 -7.3,43.25 -1.53,87.72 -3.47,131.47 -13.42,0.13 -26.85,0.13 -40.23,0.09 -0.13,-69.34 0,-138.72 -0.09,-208.05z"/>
  <path class="fil0" d="M1121.96 86.53c12.79,-0.05 25.54,-0.05 38.34,-0.05 0.09,6.13 0.18,12.3 0.27,18.47 22.03,-16.66 49.74,-23.02 76.81,-16.98 1.58,13.74 1.71,27.57 1.49,41.36 -28.88,-7.62 -65.69,0.63 -73.12,33.69 -7.3,43.25 -1.53,87.72 -3.47,131.47 -13.42,0.13 -26.85,0.13 -40.23,0.09 -0.13,-69.34 0,-138.72 -0.09,-208.05z"/>
  <path class="fil1 str0" d="M1230.71 241.37c14.69,-3.15 31.13,6.22 34.29,21.31 6.71,23.74 -24.74,46.18 -44.69,30.59 -20.91,-12.21 -14.92,-49.74 10.4,-51.9z"/>
  <path class="fil0" d="M1214.4 272.52l2.03 -0.18c0.1,0.82 0.32,1.5 0.68,2.03 0.35,0.52 0.9,0.95 1.64,1.28 0.75,0.32 1.58,0.48 2.51,0.48 0.83,0 1.56,-0.12 2.19,-0.36 0.63,-0.25 1.1,-0.59 1.41,-1.02 0.31,-0.43 0.47,-0.9 0.47,-1.4 0,-0.51 -0.15,-0.96 -0.45,-1.35 -0.3,-0.38 -0.79,-0.7 -1.47,-0.96 -0.44,-0.17 -1.41,-0.43 -2.92,-0.8 -1.5,-0.36 -2.56,-0.7 -3.16,-1.02 -0.78,-0.41 -1.36,-0.92 -1.74,-1.52 -0.38,-0.61 -0.57,-1.29 -0.57,-2.04 0,-0.83 0.23,-1.61 0.7,-2.32 0.47,-0.72 1.15,-1.27 2.05,-1.64 0.9,-0.37 1.9,-0.56 3.01,-0.56 1.21,0 2.28,0.19 3.2,0.59 0.93,0.39 1.64,0.96 2.14,1.72 0.5,0.76 0.77,1.62 0.81,2.58l-2.08 0.16c-0.12,-1.03 -0.49,-1.81 -1.14,-2.34 -0.64,-0.53 -1.59,-0.79 -2.85,-0.79 -1.31,0 -2.27,0.24 -2.86,0.72 -0.6,0.48 -0.9,1.06 -0.9,1.74 0,0.58 0.21,1.07 0.63,1.45 0.42,0.38 1.51,0.77 3.27,1.16 1.76,0.4 2.97,0.75 3.62,1.05 0.95,0.44 1.65,0.99 2.11,1.66 0.45,0.67 0.67,1.45 0.67,2.32 0,0.88 -0.24,1.69 -0.74,2.46 -0.5,0.77 -1.21,1.37 -2.15,1.8 -0.93,0.42 -1.98,0.64 -3.15,0.64 -1.48,0 -2.71,-0.22 -3.71,-0.65 -1,-0.43 -1.78,-1.08 -2.35,-1.95 -0.57,-0.86 -0.87,-1.84 -0.9,-2.94z"/>
  <path id="1" class="fil0" d="M1241.07 261.41l2.18 0 0 9.46c0,1.64 -0.19,2.95 -0.56,3.92 -0.37,0.96 -1.04,1.75 -2.01,2.35 -0.97,0.61 -2.24,0.92 -3.82,0.92 -1.53,0 -2.78,-0.27 -3.75,-0.8 -0.98,-0.53 -1.67,-1.29 -2.09,-2.29 -0.41,-1 -0.62,-2.37 -0.62,-4.1l0 -9.46 2.17 0 0 9.45c0,1.42 0.13,2.47 0.4,3.15 0.26,0.67 0.71,1.19 1.35,1.55 0.64,0.37 1.43,0.55 2.36,0.55 1.58,0 2.71,-0.36 3.39,-1.08 0.67,-0.72 1,-2.11 1,-4.17l0 -9.45z"/>
  <path id="2" class="fil0" d="M1246.15 272.52l2.04 -0.18c0.09,0.82 0.32,1.5 0.67,2.03 0.36,0.52 0.91,0.95 1.65,1.28 0.74,0.32 1.58,0.48 2.51,0.48 0.83,0 1.55,-0.12 2.19,-0.36 0.63,-0.25 1.1,-0.59 1.41,-1.02 0.3,-0.43 0.46,-0.9 0.46,-1.4 0,-0.51 -0.15,-0.96 -0.44,-1.35 -0.3,-0.38 -0.79,-0.7 -1.48,-0.96 -0.44,-0.17 -1.41,-0.43 -2.91,-0.8 -1.51,-0.36 -2.56,-0.7 -3.16,-1.02 -0.78,-0.41 -1.36,-0.92 -1.74,-1.52 -0.39,-0.61 -0.58,-1.29 -0.58,-2.04 0,-0.83 0.24,-1.61 0.71,-2.32 0.47,-0.72 1.15,-1.27 2.05,-1.64 0.9,-0.37 1.9,-0.56 3,-0.56 1.21,0 2.28,0.19 3.21,0.59 0.92,0.39 1.64,0.96 2.14,1.72 0.5,0.76 0.76,1.62 0.8,2.58l-2.08 0.16c-0.11,-1.03 -0.49,-1.81 -1.13,-2.34 -0.65,-0.53 -1.6,-0.79 -2.85,-0.79 -1.32,0 -2.27,0.24 -2.87,0.72 -0.6,0.48 -0.9,1.06 -0.9,1.74 0,0.58 0.22,1.07 0.64,1.45 0.42,0.38 1.5,0.77 3.26,1.16 1.76,0.4 2.97,0.75 3.63,1.05 0.95,0.44 1.65,0.99 2.1,1.66 0.46,0.67 0.68,1.45 0.68,2.32 0,0.88 -0.25,1.69 -0.75,2.46 -0.49,0.77 -1.21,1.37 -2.14,1.8 -0.93,0.42 -1.98,0.64 -3.15,0.64 -1.48,0 -2.72,-0.22 -3.72,-0.65 -1,-0.43 -1.78,-1.08 -2.35,-1.95 -0.57,-0.86 -0.87,-1.84 -0.9,-2.94z"/>
 </g>
</svg>
