<?xml version="1.0" encoding="UTF-8"?>
<!DOCTYPE svg PUBLIC "-//W3C//DTD SVG 1.1//EN" "http://www.w3.org/Graphics/SVG/1.1/DTD/svg11.dtd">
<!-- Creator: CorelDRAW 2018 (64-Bit) -->
<svg xmlns="http://www.w3.org/2000/svg" xml:space="preserve" width="1243px" height="278px" version="1.1" style="shape-rendering:geometricPrecision; text-rendering:geometricPrecision; image-rendering:optimizeQuality; fill-rule:evenodd; clip-rule:evenodd"
viewBox="0 0 1556.05 348.04"
 xmlns:xlink="http://www.w3.org/1999/xlink">
 <defs>
  <style type="text/css">
   <![CDATA[
    .fil1 {fill:#1FBD74;fill-rule:nonzero}
    .fil0 {fill:#212224;fill-rule:nonzero}
   ]]>
  </style>
 </defs>
 <g id="Layer_x0020_1">
  <metadata id="CorelCorpID_0Corel-Layer"/>
  <path class="fil0" d="M174.25 0.09c15.64,-0.11 31.23,-0.11 46.82,-0.06 0.11,39.53 -0.1,79.05 0.11,118.57 27.37,-21.64 64.18,-31.18 98.02,-20.44 34.57,9.54 57.62,44.79 57.77,79.88 0.52,54.22 0,108.5 0.16,162.73 -15.59,0.21 -31.18,0.21 -46.77,0.15 -1.15,-55.16 1.93,-110.53 -1.57,-165.54 -12.09,-53.03 -96.82,-41.03 -105.63,8.76 -4.85,51.88 -0.68,104.54 -2.09,156.73 -15.59,0.11 -31.18,0.11 -46.82,0.05 -0.1,-113.61 -0.05,-227.22 0,-340.83z"/>
  <path class="fil0" d="M43.43 43.94c15.65,-7.83 31.23,-15.8 46.77,-23.83 0.11,26.59 0,53.23 0.05,79.88 19.51,0.1 39.01,0.1 58.51,0.15 0,15.07 0,30.14 -0.06,45.21 -19.44,-0.05 -38.89,-0.11 -58.34,0.1 0.47,44.06 -1.46,88.22 0.88,132.18 5.22,31.91 43.75,23.77 65.91,18.09 -0.05,14.81 -0.05,29.67 0,44.53 -39.78,14.13 -98.49,4.22 -109.91,-42.81 -8.76,-50.11 -0.78,-101.67 -4.54,-152.35 -14.23,0.21 -28.47,0.26 -42.65,0.31 -0.05,-15.07 -0.05,-30.14 -0.05,-45.2 14.49,-0.11 28.99,-0.11 43.43,-0.27 -0.05,-18.66 -0.05,-37.33 0,-55.99z"/>
  <path class="fil0" d="M908.12 133.41c35.19,-43.49 105.63,-52.61 150.42,-18.82 37.02,26.64 48.08,76.01 43.07,119.24 -59.65,0.52 -119.24,-0.37 -178.84,0.42 2.87,22.21 11.58,45.77 31.86,57.61 34.31,23.62 89.37,9.96 101.36,-32.33 15.27,0 30.55,0 45.83,0.26 -8.45,70.29 -92.13,105.43 -153.45,79.99 -78.1,-32.12 -93.12,-145.73 -40.25,-206.37zm16.68 59.02l0 0c43.59,0.83 87.18,0.62 130.77,0.16 -4.59,-25.66 -23.1,-49.64 -50.42,-52.51 -36.18,-7.66 -70.75,17.99 -80.35,52.35z"/>
  <path class="fil0" d="M423.48 100.14c15.28,-0.1 30.61,-0.05 45.88,0.26 0.16,7.04 0.26,14.13 0.42,21.17 24.72,-20.54 57.82,-26.69 88.79,-19.08 0,15.75 0,31.49 0.06,47.24 -33.48,-9.18 -76.6,1.2 -84.26,39.78 -9.18,49.69 -1.93,101.05 -4.33,151.36 -15.54,0.11 -31.02,0.11 -46.56,-0.05 0,-80.19 0.05,-160.43 0,-240.68z"/>
  <path class="fil0" d="M584.17 100.14c15.7,-0.1 31.34,-0.05 46.98,0.32 -0.1,80.13 0.21,160.27 -0.15,240.41 -15.59,0.11 -31.18,0.11 -46.72,0.05 -0.16,-80.29 0,-160.53 -0.11,-240.78z"/>
  <path class="fil0" d="M647.63 100.14c16.73,-0.1 33.42,-0.1 50.16,0.11 23.88,59.44 46.09,119.55 71.95,178.16 23.52,-59.23 47.86,-118.15 70.6,-177.64 16.73,-0.89 33.47,-0.89 50.21,-0.37 -32.54,80.25 -65.44,160.33 -98.44,240.42 -15.28,-0.83 -31.86,3.02 -46.3,-2.35 -34.21,-78.73 -64.97,-159.08 -98.18,-238.33z"/>
  <path class="fil0" d="M1136.86 100.14c14.8,-0.05 29.56,-0.05 44.37,-0.05 0.1,7.09 0.21,14.24 0.31,21.38 25.5,-19.29 57.56,-26.65 88.9,-19.66 1.82,15.9 1.98,31.91 1.72,47.87 -33.42,-8.82 -76.02,0.73 -84.62,39 -8.45,50.05 -1.78,101.51 -4.02,152.14 -15.54,0.16 -31.07,0.16 -46.56,0.1 -0.16,-80.24 0,-160.53 -0.1,-240.78z"/>
  <path class="fil0" d="M1298.49 100.14c14.81,-0.05 29.56,-0.05 44.37,-0.05 0.1,7.09 0.21,14.24 0.31,21.38 25.5,-19.29 57.57,-26.65 88.9,-19.66 1.83,15.9 1.98,31.91 1.72,47.87 -33.42,-8.82 -76.02,0.73 -84.62,39 -8.45,50.05 -1.77,101.51 -4.02,152.14 -15.53,0.16 -31.07,0.16 -46.56,0.1 -0.15,-80.24 0,-160.53 -0.1,-240.78z"/>
  <path class="fil1" d="M1515.3 276.39c17,-3.65 36.03,7.2 39.68,24.66 7.77,27.48 -28.63,53.45 -51.73,35.41 -24.19,-14.13 -17.25,-57.57 12.05,-60.07z"/>
 </g>
</svg>
