<?xml version="1.0" encoding="UTF-8"?>
<!DOCTYPE svg PUBLIC "-//W3C//DTD SVG 1.1//EN" "http://www.w3.org/Graphics/SVG/1.1/DTD/svg11.dtd">
<!-- Creator: CorelDRAW 2018 (64-Bit) -->
<svg xmlns="http://www.w3.org/2000/svg" xml:space="preserve" width="1146px" height="278px" version="1.1" style="shape-rendering:geometricPrecision; text-rendering:geometricPrecision; image-rendering:optimizeQuality; fill-rule:evenodd; clip-rule:evenodd"
viewBox="0 0 1322 320.88"
 xmlns:xlink="http://www.w3.org/1999/xlink">
 <defs>
  <style type="text/css">
   <![CDATA[
    .fil0 {fill:#212224;fill-rule:nonzero}
   ]]>
  </style>
 </defs>
 <g id="Layer_x0020_1">
  <metadata id="CorelCorpID_0Corel-Layer"/>
  <path class="fil0" d="M160.65 0.08c14.42,-0.1 28.8,-0.1 43.17,-0.05 0.1,36.44 -0.1,72.88 0.1,109.32 25.23,-19.95 59.17,-28.75 90.37,-18.85 31.87,8.8 53.12,41.29 53.26,73.64 0.48,50 0,100.04 0.15,150.03 -14.38,0.2 -28.75,0.2 -43.12,0.15 -1.06,-50.86 1.78,-101.91 -1.44,-152.63 -11.16,-48.88 -89.27,-37.83 -97.4,8.08 -4.47,47.83 -0.62,96.38 -1.92,144.5 -14.37,0.1 -28.75,0.1 -43.17,0.05 -0.09,-104.75 -0.04,-209.49 0,-314.24z"/>
  <path class="fil0" d="M40.04 40.51c14.43,-7.21 28.8,-14.57 43.12,-21.97 0.1,24.52 0,49.08 0.05,73.64 17.98,0.1 35.96,0.1 53.94,0.15 0,13.89 0,27.78 -0.05,41.68 -17.93,-0.05 -35.86,-0.1 -53.79,0.09 0.43,40.62 -1.35,81.34 0.81,121.86 4.81,29.42 40.34,21.92 60.77,16.68 -0.05,13.65 -0.05,27.35 0,41.06 -36.68,13.02 -90.81,3.89 -101.34,-39.47 -8.07,-46.2 -0.72,-93.74 -4.18,-140.46 -13.12,0.19 -26.25,0.24 -39.32,0.28 -0.05,-13.89 -0.05,-27.78 -0.05,-41.67 13.36,-0.1 26.73,-0.1 40.04,-0.24 -0.04,-17.21 -0.04,-34.42 0,-51.63z"/>
  <path class="fil0" d="M837.25 123c32.45,-40.09 97.39,-48.51 138.69,-17.36 34.13,24.57 44.32,70.09 39.7,109.94 -54.99,0.48 -109.93,-0.33 -164.88,0.39 2.64,20.47 10.67,42.2 29.37,53.11 31.63,21.78 82.39,9.19 93.45,-29.8 14.09,0 28.17,0 42.26,0.24 -7.79,64.8 -84.95,97.2 -141.48,73.74 -72.01,-29.61 -85.85,-134.36 -37.11,-190.26zm15.38 54.41l0 0c40.19,0.77 80.38,0.58 120.57,0.15 -4.23,-23.65 -21.3,-45.77 -46.49,-48.41 -33.36,-7.07 -65.23,16.59 -74.08,48.26z"/>
  <path class="fil0" d="M390.43 92.33c14.09,-0.1 28.22,-0.05 42.31,0.24 0.14,6.49 0.24,13.03 0.38,19.52 22.79,-18.94 53.31,-24.62 81.86,-17.6 0,14.52 0,29.04 0.05,43.55 -30.86,-8.46 -70.61,1.11 -77.68,36.68 -8.46,45.81 -1.78,93.16 -3.99,139.55 -14.33,0.1 -28.6,0.1 -42.93,-0.05 0,-73.93 0.05,-147.91 0,-221.89z"/>
  <path class="fil0" d="M538.59 92.33c14.47,-0.1 28.89,-0.05 43.31,0.29 -0.1,73.88 0.19,147.77 -0.14,221.65 -14.38,0.1 -28.75,0.1 -43.08,0.05 -0.14,-74.03 0,-148.01 -0.09,-221.99z"/>
  <path class="fil0" d="M597.09 92.33c15.43,-0.1 30.81,-0.1 46.24,0.09 22.02,54.81 42.5,110.23 66.34,164.26 21.68,-54.61 44.13,-108.93 65.09,-163.77 15.43,-0.82 30.86,-0.82 46.29,-0.34 -29.99,73.98 -60.33,147.82 -90.76,221.65 -14.08,-0.77 -29.37,2.79 -42.68,-2.16 -31.54,-72.59 -59.9,-146.66 -90.52,-219.73z"/>
  <path class="fil0" d="M1048.14 92.33c13.65,-0.05 27.26,-0.05 40.91,-0.05 0.09,6.54 0.19,13.12 0.29,19.71 23.5,-17.79 53.07,-24.57 81.96,-18.12 1.68,14.66 1.82,29.42 1.58,44.13 -30.81,-8.13 -70.08,0.67 -78.01,35.95 -7.79,46.15 -1.64,93.6 -3.71,140.27 -14.32,0.15 -28.65,0.15 -42.92,0.1 -0.15,-73.98 0,-148.01 -0.1,-221.99z"/>
  <path class="fil0" d="M1197.16 92.33c13.65,-0.05 27.25,-0.05 40.91,-0.05 0.09,6.54 0.19,13.12 0.29,19.71 23.5,-17.79 53.07,-24.57 81.96,-18.12 1.68,14.66 1.82,29.42 1.58,44.13 -30.81,-8.13 -70.08,0.67 -78.02,35.95 -7.78,46.15 -1.63,93.6 -3.7,140.27 -14.32,0.15 -28.65,0.15 -42.93,0.1 -0.14,-73.98 0,-148.01 -0.09,-221.99z"/>
 </g>
</svg>
