<?xml version="1.0" encoding="UTF-8"?>
<!DOCTYPE svg PUBLIC "-//W3C//DTD SVG 1.1//EN" "http://www.w3.org/Graphics/SVG/1.1/DTD/svg11.dtd">
<!-- Creator: CorelDRAW 2018 (64-Bit) -->
<svg xmlns="http://www.w3.org/2000/svg" xml:space="preserve" width="16px" height="16px" version="1.1" style="shape-rendering:geometricPrecision; text-rendering:geometricPrecision; image-rendering:optimizeQuality; fill-rule:evenodd; clip-rule:evenodd"
viewBox="0 0 9.72 9.72"
 xmlns:xlink="http://www.w3.org/1999/xlink">
 <defs>
  <style type="text/css">
   <![CDATA[
    .fil0 {fill:#009846}
    .fil1 {fill:#FEFEFE;fill-rule:nonzero}
   ]]>
  </style>
 </defs>
 <g id="Layer_x0020_1">
  <metadata id="CorelCorpID_0Corel-Layer"/>
  <circle class="fil0" cx="4.86" cy="4.86" r="4.86"/>
  <g id="_2471359782032">
   <path class="fil1" d="M4.49 1.74c0.26,0 0.51,0 0.77,0 0,0.65 -0.01,1.29 0,1.94 0.44,-0.35 1.05,-0.51 1.6,-0.34 0.56,0.16 0.94,0.74 0.94,1.31 0.01,0.89 0,1.77 0,2.66 -0.25,0 -0.51,0 -0.76,0 -0.02,-0.9 0.03,-1.81 -0.03,-2.7 -0.19,-0.87 -1.58,-0.67 -1.72,0.14 -0.08,0.85 -0.01,1.71 -0.03,2.56 -0.26,0 -0.51,0 -0.77,0 0,-1.86 0,-3.71 0,-5.57z"/>
   <path class="fil1" d="M2.35 2.46c0.26,-0.13 0.51,-0.26 0.77,-0.39 0,0.43 0,0.87 0,1.3 0.32,0.01 0.63,0.01 0.95,0.01 0,0.24 0,0.49 0,0.74 -0.32,-0.01 -0.63,-0.01 -0.95,0 0.01,0.72 -0.02,1.44 0.01,2.16 0.09,0.52 0.72,0.39 1.08,0.29 0,0.24 0,0.49 0,0.73 -0.65,0.23 -1.61,0.07 -1.79,-0.7 -0.15,-0.82 -0.02,-1.66 -0.08,-2.49 -0.23,0 -0.46,0.01 -0.7,0.01 0,-0.25 0,-0.5 0,-0.74 0.24,0 0.48,0 0.71,-0.01 0,-0.3 0,-0.61 0,-0.91z"/>
  </g>
 </g>
</svg>
